<svg xmlns="http://www.w3.org/2000/svg" width="512" height="512" viewBox="0 0 512 512">
  <defs>
    <linearGradient id="bg" x1="0" y1="0" x2="0" y2="1">
      <stop offset="0" stop-color="#ff7a85"/>
      <stop offset="1" stop-color="#b71c2b"/>
    </linearGradient>
  </defs>
  <rect width="512" height="512" rx="96" fill="url(#bg)"/>

  <!-- 학습 블록: 가 1 A -->
  <g font-family="Jua, sans-serif" font-size="92" fill="#b71c2b" text-anchor="middle">
    <rect x="70"  y="86" width="110" height="110" rx="22" fill="#fff7f3"/>
    <text x="125" y="170">가</text>
    <rect x="201" y="86" width="110" height="110" rx="22" fill="#ffd166"/>
    <text x="256" y="170" fill="#5a3b00">1</text>
    <rect x="332" y="86" width="110" height="110" rx="22" fill="#5bd97f"/>
    <text x="387" y="170" fill="#0c5a2a">A</text>
  </g>

  <!-- 빨강이 -->
  <g transform="translate(256,330) scale(2.05)">
    <path d="M-40 26 A40 40 0 0 1 40 26 L40 58 Q32.5 50 25 58 Q17.5 66 10 58 Q2.5 50 -5 58 Q-12.5 66 -20 58 Q-27.5 50 -35 58 Q-38 54 -40 58 Z" fill="#ff4d57"/>
    <circle cx="-12" cy="20" r="11.5" fill="#fff"/><circle cx="12" cy="20" r="11.5" fill="#fff"/>
    <circle cx="-9.5" cy="22" r="5.2" fill="#2d2350"/><circle cx="14.5" cy="22" r="5.2" fill="#2d2350"/>
    <circle cx="-11.2" cy="20.2" r="1.7" fill="#fff"/><circle cx="12.8" cy="20.2" r="1.7" fill="#fff"/>
    <circle cx="-25" cy="33" r="6" fill="#ff9aa9" opacity="0.65"/><circle cx="25" cy="33" r="6" fill="#ff9aa9" opacity="0.65"/>
    <path d="M-7 35 Q0 41 7 35" stroke="#2d2350" stroke-width="2.6" fill="none" stroke-linecap="round"/>
  </g>
</svg>
